<svg width="120" height="40" viewBox="0 0 120 40" fill="none" xmlns="http://www.w3.org/2000/svg">
  <rect width="120" height="40" rx="4" fill="none"/>
  <!-- Movie icon -->
  <path d="M5 12H11V17H5V12Z" fill="#FFD700"/>
  <path d="M13 12H19V17H13V12Z" fill="#FFD700"/>
  <path d="M5 19H11V24H5V19Z" fill="#FFD700"/>
  <path d="M13 19H19V24H13V19Z" fill="#FFD700"/>
  <!-- Movie -->
  <path d="M24 12H29L32 18L35 12H40V28H35V19L32 25L29 19V28H24V12Z" fill="white"/>
  <path d="M42 12H49C50.3 12 51.3 12.3 52 13C52.7 13.7 53 14.7 53 16V24C53 25.3 52.7 26.3 52 27C51.3 27.7 50.3 28 49 28H42V12ZM48 24C48.6 24 49 23.6 49 23V17C49 16.4 48.6 16 48 16H46V24H48Z" fill="white"/>
  <!-- Station -->
  <path d="M57 12H64C65.3 12 66.3 12.3 67 13C67.7 13.7 68 14.7 68 16V16.5C68 18 67.3 19 66 19.5C67.3 20 68 21 68 22.5V24C68 25.3 67.7 26.3 67 27C66.3 27.7 65.3 28 64 28H57V12ZM63 18C63.6 18 64 17.6 64 17V16C64 15.4 63.6 15 63 15H61V18H63ZM63 25C63.6 25 64 24.6 64 24V22C64 21.4 63.6 21 63 21H61V25H63Z" fill="white"/>
  <path d="M71 12H76V24H83V28H71V12Z" fill="white"/>
  <path d="M86 12H98V15H93V28H91V15H86V12Z" fill="white"/>
  <path d="M100 12H115V15H109V19H114V22H109V25H115V28H100V12Z" fill="white"/>
</svg> 